# xmcd
#
# Track frame offsets: 
#        150
#        20036
#        43412
#        68673
#        93435
#        118576
#        136719
#        164063
#        185959
#        208537
#        230040
#
# Disc length: 3098 seconds
#
# Revision: 1
# Processed by: cddbd v1.5.2PL0 Copyright (c) Steve Scherf et al.
# Submitted via: ExactAudioCopyFreeDBPlugin 1.0
#
DISCID=a50c180b
DTITLE=Hazmat Modine - Extra-Deluxe-Supreme
DYEAR=2015
DGENRE=Blues
TTITLE0=Another Day
TTITLE1=Plans
TTITLE2=Your Sister
TTITLE3=Up and Raise 
TTITLE4=Arcadia (Coffee, Salt and Laces)
TTITLE5=Moving Stones
TTITLE6=Whiskey Bird
TTITLE7=All of My Days
TTITLE8=End of Sweet Dreams
TTITLE9=Most of All
TTITLE10=Screaming Kids
EXTD=
EXTT0=
EXTT1=
EXTT2=
EXTT3=
EXTT4=
EXTT5=
EXTT6=
EXTT7=
EXTT8=
EXTT9=
EXTT10=
PLAYORDER=
